<?xml version="1.0" encoding="utf-8"?>
<!-- Generator: Adobe Illustrator 18.0.0, SVG Export Plug-In . SVG Version: 6.00 Build 0)  -->
<!DOCTYPE svg PUBLIC "-//W3C//DTD SVG 1.1//EN" "http://www.w3.org/Graphics/SVG/1.1/DTD/svg11.dtd">
<svg version="1.1" id="Facebook" xmlns="http://www.w3.org/2000/svg" xmlns:xlink="http://www.w3.org/1999/xlink" x="0px" y="0px"
	 viewBox="0 0 540 360" enable-background="new 0 0 540 360" xml:space="preserve">
<path fill="#FFFFFF" d="M396,18H144c-19.8,0-36,16.2-36,36v252c0,19.8,16.2,36,36,36h126V216h-36v-44.6h36v-36.9
	c0-39,21.8-66.3,67.8-66.3l32.5,0v46.9h-21.5c-17.9,0-24.7,13.4-24.7,25.9v30.4h46.2L360,216h-36v126h72c19.8,0,36-16.2,36-36V54
	C432,34.2,415.8,18,396,18z"/>
</svg>
