<?xml version="1.0" encoding="utf-8"?>
<!-- Generator: Adobe Illustrator 18.0.0, SVG Export Plug-In . SVG Version: 6.00 Build 0)  -->
<!DOCTYPE svg PUBLIC "-//W3C//DTD SVG 1.1//EN" "http://www.w3.org/Graphics/SVG/1.1/DTD/svg11.dtd">
<svg version="1.1" id="Twitter" xmlns="http://www.w3.org/2000/svg" xmlns:xlink="http://www.w3.org/1999/xlink" x="0px" y="0px"
	 viewBox="0 0 540 360" enable-background="new 0 0 540 360" xml:space="preserve">
<path fill="#FFFFFF" d="M401.7,112.4c0.1,2.9,0.2,5.9,0.2,8.8c0,89.8-68.3,193.4-193.3,193.4c-38.4,0-74.1-11.2-104.2-30.5
	c5.3,0.6,10.7,1,16.2,1c31.9,0,61.1-10.9,84.4-29.1c-29.7-0.6-54.8-20.2-63.5-47.2c4.1,0.8,8.4,1.2,12.8,1.2
	c6.2,0,12.2-0.8,17.9-2.4c-31.1-6.3-54.5-33.7-54.5-66.7c0-0.3,0-0.6,0-0.8c9.2,5.1,19.7,8.2,30.8,8.5c-18.2-12.2-30.2-33-30.2-56.6
	c0-12.4,3.3-24.1,9.2-34.2c33.5,41.1,83.6,68.2,140.1,71c-1.2-5-1.7-10.2-1.7-15.5c0-37.5,30.4-67.9,67.9-67.9
	c19.5,0,37.2,8.2,49.6,21.4c15.5-3.1,30-8.7,43.1-16.5c-5.1,15.9-15.9,29.2-29.9,37.6c13.8-1.7,26.8-5.3,39-10.7
	C426.5,90.9,415,102.9,401.7,112.4z"/>
</svg>
